# xmcd CD database file
#
# Track frame offsets:
#	150
#	18670
#	39508
#	57787
#	77756
#	105863
#	124558
#	142502
#	166027
#	191158
#	213246
#
# Disc length: 3042 seconds
#
# Revision: 0
# Processed by: cddbd v1.5.1PL2 Copyright (c) Steve Scherf et al.
# Submitted via: CDex 1.51
#
DISCID=7f0be00b
DTITLE=伴　都美子 - FAREWELL
DYEAR=2006
DGENRE=JPop
TTITLE0=farewel
TTITLE1=morning glory
TTITLE2=うらら。
TTITLE3=Essence
TTITLE4=horoscope
TTITLE5=complacence
TTITLE6=鵺の鳴く夜
TTITLE7=HOLY PLANET
TTITLE8=Before Sunset
TTITLE9=Hold Me...
TTITLE10=A Dream Is a Wish Your Heart Makes
EXTD=YEAR: 2006
EXTT0=
EXTT1=
EXTT2=
EXTT3=
EXTT4=
EXTT5=
EXTT6=
EXTT7=
EXTT8=
EXTT9=
EXTT10=
PLAYORDER=
